<?xml version="1.0" standalone="no"?>
<!DOCTYPE svg PUBLIC "-//W3C//DTD SVG 20010904//EN"
 "http://www.w3.org/TR/2001/REC-SVG-20010904/DTD/svg10.dtd">
<svg version="1.0" xmlns="http://www.w3.org/2000/svg"
 width="512.000000pt" height="512.000000pt" viewBox="0 0 512.000000 512.000000"
 preserveAspectRatio="xMidYMid meet">

<g transform="translate(0.000000,512.000000) scale(0.100000,-0.100000)"
fill="#000000" stroke="none">
<path d="M3022 4441 c-45 -16 -150 -65 -232 -110 -175 -94 -246 -126 -332
-146 -76 -18 -283 -20 -429 -4 -167 18 -392 16 -469 -5 -107 -29 -188 -74
-260 -146 -115 -115 -165 -247 -176 -460 -19 -356 117 -1002 306 -1451 232
-552 609 -1071 958 -1319 103 -73 219 -140 244 -140 9 0 19 -6 22 -12 5 -10 7
-10 12 0 3 6 12 12 20 12 7 0 21 11 29 24 15 22 12 37 -36 227 -48 188 -53
215 -57 347 -11 361 72 717 218 932 44 65 132 150 180 175 154 80 276 -100
325 -482 12 -96 14 -139 5 -204 -13 -105 -13 -220 0 -253 12 -32 50 -51 83
-42 20 5 32 22 55 78 57 138 110 322 123 422 41 333 -68 642 -274 779 -289
192 -641 19 -862 -422 -50 -101 -96 -245 -139 -441 -41 -181 -55 -211 -79
-164 -8 16 -23 56 -32 89 -10 33 -69 184 -132 335 -282 675 -388 969 -447
1231 -49 225 -45 333 17 385 29 24 37 26 97 22 36 -3 115 -22 180 -43 101 -33
130 -39 236 -43 226 -8 426 52 619 186 220 154 267 182 336 203 245 74 383
-119 498 -696 64 -318 74 -431 75 -870 2 -290 6 -410 15 -438 13 -42 40 -57
96 -57 38 0 39 1 69 152 59 291 103 623 111 848 19 493 -62 944 -216 1203 -52
87 -160 202 -232 245 -104 63 -177 82 -317 82 -112 0 -134 -3 -208 -29z m333
-76 c179 -46 307 -160 406 -360 106 -216 151 -473 151 -865 0 -298 -33 -651
-85 -900 l-14 -65 -6 65 c-4 36 -12 191 -18 345 -9 228 -17 323 -46 510 -79
526 -156 758 -298 901 -80 81 -147 108 -257 102 -96 -6 -176 -43 -325 -151
-162 -118 -318 -191 -474 -223 -124 -25 -315 -15 -479 25 -247 61 -327 34
-359 -117 -36 -172 12 -405 194 -940 187 -551 513 -1356 567 -1400 13 -11 16
-3 22 65 10 110 41 288 75 428 146 598 421 911 753 856 91 -15 144 -38 198
-87 90 -81 140 -201 160 -385 17 -152 -7 -432 -48 -574 l-9 -30 -7 35 c-3 19
-22 157 -41 305 -34 261 -36 273 -74 352 -76 159 -175 229 -285 204 -72 -17
-123 -50 -198 -129 -206 -219 -308 -529 -308 -938 0 -213 35 -548 65 -617 6
-14 2 -17 -20 -17 -55 0 -373 288 -536 485 -446 540 -699 1137 -835 1970 -25
152 -25 414 0 505 70 254 252 380 549 380 60 0 182 -7 271 -16 293 -30 403 -9
701 133 213 101 257 119 350 143 86 23 182 25 260 5z"/>
<path d="M1930 3937 c0 -61 88 -88 285 -86 145 1 165 4 165 24 0 16 2 15 -230
50 -91 14 -177 28 -192 31 -25 5 -28 3 -28 -19z"/>
<path d="M1415 3817 c-56 -87 -82 -261 -66 -447 52 -589 375 -1490 632 -1762
47 -51 49 -52 43 -23 -16 78 -121 372 -204 570 -326 783 -401 1019 -416 1300
-5 101 -3 118 21 200 52 168 51 165 35 175 -22 14 -28 12 -45 -13z"/>
</g>
</svg>
